<?xml version="1.0" standalone="no"?>
<!DOCTYPE svg PUBLIC "-//W3C//DTD SVG 20010904//EN"
 "http://www.w3.org/TR/2001/REC-SVG-20010904/DTD/svg10.dtd">
<svg version="1.0" xmlns="http://www.w3.org/2000/svg"
 width="460.000000pt" height="460.000000pt" viewBox="0 0 460.000000 460.000000"
 preserveAspectRatio="xMidYMid meet">
<metadata>
Created by potrace 1.14, written by Peter Selinger 2001-2017
</metadata>
<g transform="translate(0.000000,460.000000) scale(0.100000,-0.100000)"
fill="#000000" stroke="none">
<path d="M1607 4480 c-112 -35 -187 -101 -240 -210 -26 -53 -32 -79 -34 -142
-1 -42 2 -92 8 -110 11 -38 20 -28 -111 -114 -94 -62 -187 -136 -269 -213
l-53 -51 -32 19 c-56 34 -143 54 -220 49 -199 -13 -354 -177 -358 -379 -3
-127 55 -237 170 -326 l23 -18 -20 -55 c-25 -69 -55 -176 -72 -257 -11 -53
-16 -63 -34 -63 -78 0 -197 -57 -258 -124 -164 -180 -125 -460 80 -589 59 -37
118 -54 207 -61 12 0 23 -12 28 -31 40 -137 68 -213 115 -315 l25 -54 -29 -26
c-113 -102 -160 -241 -129 -388 21 -97 111 -209 206 -255 128 -62 292 -46 406
38 20 15 24 13 81 -33 33 -26 95 -70 137 -97 l77 -50 -7 -40 c-37 -202 42
-367 214 -448 61 -29 76 -32 162 -32 87 0 101 3 160 32 82 40 149 105 184 177
l28 56 61 -7 c140 -15 400 -5 528 21 l60 13 25 -43 c37 -64 125 -139 192 -165
43 -17 78 -22 147 -23 80 0 97 3 156 31 108 50 185 144 216 260 17 66 13 161
-10 216 -11 26 -12 37 -4 40 16 6 179 138 193 155 9 12 17 10 50 -11 324 -214
722 134 560 489 -23 49 -124 164 -145 164 -5 0 -1 17 9 38 14 29 74 206 84
246 1 5 27 11 57 12 144 7 265 89 332 224 29 59 32 72 32 160 -1 78 -5 105
-25 151 -57 128 -175 217 -313 234 -22 3 -42 6 -43 8 -1 1 -4 22 -8 47 -5 40
-11 67 -30 149 -13 55 -50 167 -60 180 -8 11 -4 19 19 35 62 45 112 97 137
143 94 174 61 361 -87 491 -122 107 -340 116 -469 19 -17 -13 -25 -8 -93 57
-41 39 -106 95 -146 125 -40 30 -71 59 -70 65 1 6 9 31 18 56 22 58 26 158 10
218 -55 209 -266 335 -469 281 -112 -30 -209 -109 -253 -206 -25 -53 -25 -54
-61 -48 -21 3 -44 7 -52 10 -47 12 -157 19 -324 19 l-190 1 -14 34 c-72 178
-284 278 -465 221z m818 -274 c89 -5 213 -21 248 -32 9 -3 14 -10 11 -16 -13
-21 -12 -123 3 -178 29 -113 103 -202 211 -253 61 -29 76 -32 162 -32 86 0
101 3 161 31 63 30 159 111 159 133 0 6 4 11 9 11 15 0 145 -103 220 -176 l74
-72 -32 -33 c-62 -67 -101 -177 -97 -278 10 -238 245 -412 480 -353 49 12 60
12 67 1 25 -39 107 -364 95 -376 -3 -3 -22 -7 -43 -10 -92 -11 -206 -86 -262
-170 -80 -120 -82 -298 -5 -420 46 -72 163 -156 232 -166 42 -6 43 -19 12
-114 -16 -50 -39 -111 -49 -136 l-20 -46 -53 21 c-67 26 -181 27 -253 3 -77
-27 -152 -84 -197 -150 -99 -145 -83 -351 35 -476 l25 -26 -30 -29 c-55 -51
-163 -134 -175 -134 -7 0 -19 13 -27 28 -33 63 -155 149 -238 168 -40 9 -144
6 -189 -6 -121 -32 -229 -138 -269 -263 -17 -54 -18 -155 -3 -201 7 -22 12
-41 10 -42 -6 -6 -108 -24 -177 -32 -84 -9 -407 -9 -442 1 -23 6 -26 10 -19
35 12 44 3 147 -19 205 -37 98 -114 176 -220 223 -34 15 -67 19 -145 19 -87 0
-107 -4 -155 -26 -71 -34 -140 -96 -171 -153 -13 -25 -27 -46 -30 -46 -10 0
-172 112 -221 152 l-47 39 38 50 c118 156 100 377 -42 511 -22 21 -69 53 -105
70 -61 30 -74 33 -162 32 -80 0 -104 -5 -151 -26 l-56 -26 -16 37 c-43 97 -59
138 -81 204 -22 65 -35 110 -42 145 -1 6 2 12 7 12 14 0 21 2 76 21 190 65
292 256 248 463 -18 83 -96 184 -180 233 -47 27 -124 55 -142 52 -29 -5 -35 2
-30 39 11 77 18 103 59 234 l30 97 27 -11 c62 -26 154 -34 224 -21 299 55 419
412 214 638 l-43 48 66 61 c90 85 191 163 281 219 42 26 79 47 82 47 4 0 16
-18 27 -40 43 -84 138 -157 241 -184 176 -45 364 45 446 213 24 49 28 69 29
155 l2 100 103 4 c57 2 106 5 107 7 2 2 9 2 15 0 7 -2 53 -6 102 -9z"/>
<path d="M2267 3734 c-1 -1 -29 -5 -62 -8 -142 -13 -298 -73 -389 -148 -74
-61 -151 -186 -172 -283 -21 -90 -31 -161 -33 -223 -1 -40 -8 -90 -15 -110
-26 -74 6 -239 49 -256 8 -3 12 -14 10 -28 -3 -12 -7 -50 -10 -83 -14 -145
-63 -343 -106 -426 l-18 -37 92 -40 c99 -44 271 -96 352 -106 76 -11 96 -17
93 -31 -6 -24 -101 -94 -151 -110 -262 -86 -456 -282 -536 -540 -12 -38 -24
-86 -27 -105 l-5 -35 958 0 c946 1 958 1 955 20 -12 78 -96 265 -165 372 -56
84 -161 186 -243 235 -32 19 -98 50 -145 68 -85 31 -159 80 -159 103 0 8 44
21 110 35 120 24 254 66 370 114 41 18 76 33 78 34 2 1 -10 31 -26 66 -30 65
-59 146 -67 189 -38 185 -38 214 -1 254 14 15 26 40 27 54 1 38 1 211 0 243
-1 17 -15 44 -36 66 -32 36 -34 44 -40 127 -24 382 -220 581 -581 589 -57 1
-106 1 -107 0z"/>
</g>
</svg>
